<mxfile host="app.diagrams.net" modified="2021-09-09T16:16:57.046Z" agent="5.0 (Windows NT 10.0; Win64; x64) AppleWebKit/537.36 (KHTML, like Gecko) Chrome/86.0.4240.183 Safari/537.36" etag="n9w5cfBvhS9x5-sy4isU" version="15.1.4" type="github" pages="2">
  <diagram id="2uB-Z0Jp92dYDnSB0GzV" name="Page-1">
    <mxGraphModel dx="1422" dy="794" grid="1" gridSize="10" guides="1" tooltips="1" connect="1" arrows="1" fold="1" page="1" pageScale="1" pageWidth="827" pageHeight="1169" math="0" shadow="0">
      <root>
        <mxCell id="0" />
        <mxCell id="1" parent="0" />
      </root>
    </mxGraphModel>
  </diagram>
  <diagram id="fAB9qey6Nt4XISnkIBRU" name="Page-2">
    <mxGraphModel dx="981" dy="548" grid="1" gridSize="10" guides="1" tooltips="1" connect="1" arrows="1" fold="1" page="1" pageScale="1" pageWidth="827" pageHeight="1169" math="0" shadow="0">
      <root>
        <mxCell id="NwJcO0OtP2wAcM16LytD-0" />
        <mxCell id="NwJcO0OtP2wAcM16LytD-1" parent="NwJcO0OtP2wAcM16LytD-0" />
        <mxCell id="NwJcO0OtP2wAcM16LytD-2" value="Painter" style="swimlane;fontStyle=1;align=center;verticalAlign=top;childLayout=stackLayout;horizontal=1;startSize=26;horizontalStack=0;resizeParent=1;resizeParentMax=0;resizeLast=0;collapsible=1;marginBottom=0;" vertex="1" parent="NwJcO0OtP2wAcM16LytD-1">
          <mxGeometry x="490" y="690" width="200" height="112" as="geometry" />
        </mxCell>
        <mxCell id="NwJcO0OtP2wAcM16LytD-68" value="+ field: type" style="text;strokeColor=none;fillColor=none;align=left;verticalAlign=top;spacingLeft=4;spacingRight=4;overflow=hidden;rotatable=0;points=[[0,0.5],[1,0.5]];portConstraint=eastwest;" vertex="1" parent="NwJcO0OtP2wAcM16LytD-2">
          <mxGeometry y="26" width="200" height="26" as="geometry" />
        </mxCell>
        <mxCell id="NwJcO0OtP2wAcM16LytD-3" value="-InterfaceMarker" style="text;strokeColor=none;fillColor=none;align=left;verticalAlign=top;spacingLeft=4;spacingRight=4;overflow=hidden;rotatable=0;points=[[0,0.5],[1,0.5]];portConstraint=eastwest;" vertex="1" parent="NwJcO0OtP2wAcM16LytD-2">
          <mxGeometry y="52" width="200" height="26" as="geometry" />
        </mxCell>
        <mxCell id="NwJcO0OtP2wAcM16LytD-4" value="" style="line;strokeWidth=1;fillColor=none;align=left;verticalAlign=middle;spacingTop=-1;spacingLeft=3;spacingRight=3;rotatable=0;labelPosition=right;points=[];portConstraint=eastwest;" vertex="1" parent="NwJcO0OtP2wAcM16LytD-2">
          <mxGeometry y="78" width="200" height="8" as="geometry" />
        </mxCell>
        <mxCell id="NwJcO0OtP2wAcM16LytD-5" value="+ method(type): type" style="text;strokeColor=none;fillColor=none;align=left;verticalAlign=top;spacingLeft=4;spacingRight=4;overflow=hidden;rotatable=0;points=[[0,0.5],[1,0.5]];portConstraint=eastwest;" vertex="1" parent="NwJcO0OtP2wAcM16LytD-2">
          <mxGeometry y="86" width="200" height="26" as="geometry" />
        </mxCell>
        <mxCell id="NwJcO0OtP2wAcM16LytD-6" value="Actor" style="shape=umlActor;verticalLabelPosition=bottom;verticalAlign=top;html=1;outlineConnect=0;" vertex="1" parent="NwJcO0OtP2wAcM16LytD-1">
          <mxGeometry x="80" y="360" width="30" height="60" as="geometry" />
        </mxCell>
        <mxCell id="NwJcO0OtP2wAcM16LytD-9" value="маркер" style="html=1;" vertex="1" parent="NwJcO0OtP2wAcM16LytD-1">
          <mxGeometry x="160" y="360" width="110" height="50" as="geometry" />
        </mxCell>
        <mxCell id="NwJcO0OtP2wAcM16LytD-10" value="доска" style="html=1;" vertex="1" parent="NwJcO0OtP2wAcM16LytD-1">
          <mxGeometry x="320" y="360" width="110" height="50" as="geometry" />
        </mxCell>
        <mxCell id="NwJcO0OtP2wAcM16LytD-11" value="" style="html=1;points=[];perimeter=orthogonalPerimeter;" vertex="1" parent="NwJcO0OtP2wAcM16LytD-1">
          <mxGeometry x="90" y="490" width="10" height="270" as="geometry" />
        </mxCell>
        <mxCell id="NwJcO0OtP2wAcM16LytD-12" value="" style="html=1;points=[];perimeter=orthogonalPerimeter;" vertex="1" parent="NwJcO0OtP2wAcM16LytD-1">
          <mxGeometry x="370" y="520" width="10" height="240" as="geometry" />
        </mxCell>
        <mxCell id="NwJcO0OtP2wAcM16LytD-13" value="" style="html=1;points=[];perimeter=orthogonalPerimeter;" vertex="1" parent="NwJcO0OtP2wAcM16LytD-1">
          <mxGeometry x="210" y="510" width="10" height="50" as="geometry" />
        </mxCell>
        <mxCell id="NwJcO0OtP2wAcM16LytD-14" value="рисовать red" style="html=1;verticalAlign=bottom;endArrow=block;entryX=0.2;entryY=0.1;entryDx=0;entryDy=0;entryPerimeter=0;" edge="1" parent="NwJcO0OtP2wAcM16LytD-1" target="NwJcO0OtP2wAcM16LytD-13">
          <mxGeometry width="80" relative="1" as="geometry">
            <mxPoint x="99" y="515" as="sourcePoint" />
            <mxPoint x="450" y="610" as="targetPoint" />
            <Array as="points" />
          </mxGeometry>
        </mxCell>
        <mxCell id="NwJcO0OtP2wAcM16LytD-15" value="рисую" style="html=1;verticalAlign=bottom;endArrow=block;entryX=-0.134;entryY=0.001;entryDx=0;entryDy=0;entryPerimeter=0;exitX=1.245;exitY=0.219;exitDx=0;exitDy=0;exitPerimeter=0;" edge="1" parent="NwJcO0OtP2wAcM16LytD-1" source="NwJcO0OtP2wAcM16LytD-13" target="NwJcO0OtP2wAcM16LytD-12">
          <mxGeometry width="80" relative="1" as="geometry">
            <mxPoint x="220" y="520" as="sourcePoint" />
            <mxPoint x="300" y="520" as="targetPoint" />
          </mxGeometry>
        </mxCell>
        <mxCell id="NwJcO0OtP2wAcM16LytD-16" value="return" style="html=1;verticalAlign=bottom;endArrow=open;dashed=1;endSize=8;entryX=0.9;entryY=0.339;entryDx=0;entryDy=0;entryPerimeter=0;" edge="1" parent="NwJcO0OtP2wAcM16LytD-1" target="NwJcO0OtP2wAcM16LytD-11">
          <mxGeometry x="-0.4136" relative="1" as="geometry">
            <mxPoint x="369" y="580" as="sourcePoint" />
            <mxPoint x="99" y="577" as="targetPoint" />
            <mxPoint as="offset" />
          </mxGeometry>
        </mxCell>
        <mxCell id="NwJcO0OtP2wAcM16LytD-17" value="" style="endArrow=none;dashed=1;html=1;exitX=0.486;exitY=0.005;exitDx=0;exitDy=0;exitPerimeter=0;entryX=0.5;entryY=1;entryDx=0;entryDy=0;" edge="1" parent="NwJcO0OtP2wAcM16LytD-1" source="NwJcO0OtP2wAcM16LytD-12" target="NwJcO0OtP2wAcM16LytD-10">
          <mxGeometry width="50" height="50" relative="1" as="geometry">
            <mxPoint x="390" y="630" as="sourcePoint" />
            <mxPoint x="371" y="411" as="targetPoint" />
          </mxGeometry>
        </mxCell>
        <mxCell id="NwJcO0OtP2wAcM16LytD-18" value="" style="endArrow=none;dashed=1;html=1;exitX=0.486;exitY=-0.008;exitDx=0;exitDy=0;exitPerimeter=0;" edge="1" parent="NwJcO0OtP2wAcM16LytD-1" source="NwJcO0OtP2wAcM16LytD-11">
          <mxGeometry width="50" height="50" relative="1" as="geometry">
            <mxPoint x="90" y="480" as="sourcePoint" />
            <mxPoint x="95" y="440" as="targetPoint" />
          </mxGeometry>
        </mxCell>
        <mxCell id="NwJcO0OtP2wAcM16LytD-19" value="" style="endArrow=none;dashed=1;html=1;exitX=0.486;exitY=-0.008;exitDx=0;exitDy=0;exitPerimeter=0;" edge="1" parent="NwJcO0OtP2wAcM16LytD-1">
          <mxGeometry width="50" height="50" relative="1" as="geometry">
            <mxPoint x="94.66" y="797.92" as="sourcePoint" />
            <mxPoint x="94.79999999999987" y="750.0000000000001" as="targetPoint" />
          </mxGeometry>
        </mxCell>
        <mxCell id="NwJcO0OtP2wAcM16LytD-20" value="" style="endArrow=none;dashed=1;html=1;entryX=0.5;entryY=1;entryDx=0;entryDy=0;exitX=0.624;exitY=0.012;exitDx=0;exitDy=0;exitPerimeter=0;" edge="1" parent="NwJcO0OtP2wAcM16LytD-1" source="NwJcO0OtP2wAcM16LytD-13" target="NwJcO0OtP2wAcM16LytD-9">
          <mxGeometry width="50" height="50" relative="1" as="geometry">
            <mxPoint x="220" y="510" as="sourcePoint" />
            <mxPoint x="270" y="460" as="targetPoint" />
            <Array as="points" />
          </mxGeometry>
        </mxCell>
        <mxCell id="NwJcO0OtP2wAcM16LytD-21" value="" style="html=1;points=[];perimeter=orthogonalPerimeter;" vertex="1" parent="NwJcO0OtP2wAcM16LytD-1">
          <mxGeometry x="210" y="600" width="10" height="60" as="geometry" />
        </mxCell>
        <mxCell id="NwJcO0OtP2wAcM16LytD-23" value="рисовать black" style="html=1;verticalAlign=bottom;endArrow=block;" edge="1" parent="NwJcO0OtP2wAcM16LytD-1">
          <mxGeometry x="-0.115" y="1" width="80" relative="1" as="geometry">
            <mxPoint x="102" y="610" as="sourcePoint" />
            <mxPoint x="210" y="610" as="targetPoint" />
            <Array as="points" />
            <mxPoint as="offset" />
          </mxGeometry>
        </mxCell>
        <mxCell id="NwJcO0OtP2wAcM16LytD-24" value="" style="endArrow=none;dashed=1;html=1;entryX=0.486;entryY=1.033;entryDx=0;entryDy=0;entryPerimeter=0;" edge="1" parent="NwJcO0OtP2wAcM16LytD-1" target="NwJcO0OtP2wAcM16LytD-13">
          <mxGeometry width="50" height="50" relative="1" as="geometry">
            <mxPoint x="215" y="599" as="sourcePoint" />
            <mxPoint x="260" y="550" as="targetPoint" />
          </mxGeometry>
        </mxCell>
        <mxCell id="NwJcO0OtP2wAcM16LytD-25" value="рисую" style="html=1;verticalAlign=bottom;endArrow=block;exitX=1.038;exitY=0.338;exitDx=0;exitDy=0;exitPerimeter=0;" edge="1" parent="NwJcO0OtP2wAcM16LytD-1" source="NwJcO0OtP2wAcM16LytD-21">
          <mxGeometry width="80" relative="1" as="geometry">
            <mxPoint x="220.00000000000006" y="620.37" as="sourcePoint" />
            <mxPoint x="370" y="620" as="targetPoint" />
          </mxGeometry>
        </mxCell>
        <mxCell id="NwJcO0OtP2wAcM16LytD-26" value="return" style="html=1;verticalAlign=bottom;endArrow=open;dashed=1;endSize=8;entryX=0.969;entryY=0.664;entryDx=0;entryDy=0;entryPerimeter=0;" edge="1" parent="NwJcO0OtP2wAcM16LytD-1" target="NwJcO0OtP2wAcM16LytD-11">
          <mxGeometry x="-0.4096" y="1" relative="1" as="geometry">
            <mxPoint x="370" y="670" as="sourcePoint" />
            <mxPoint x="290" y="670" as="targetPoint" />
            <mxPoint as="offset" />
          </mxGeometry>
        </mxCell>
        <mxCell id="NwJcO0OtP2wAcM16LytD-27" value="" style="html=1;points=[];perimeter=orthogonalPerimeter;" vertex="1" parent="NwJcO0OtP2wAcM16LytD-1">
          <mxGeometry x="210" y="690" width="10" height="50" as="geometry" />
        </mxCell>
        <mxCell id="NwJcO0OtP2wAcM16LytD-29" value="рисовать green" style="html=1;verticalAlign=bottom;endArrow=block;" edge="1" parent="NwJcO0OtP2wAcM16LytD-1">
          <mxGeometry x="0.0878" width="80" relative="1" as="geometry">
            <mxPoint x="100" y="701" as="sourcePoint" />
            <mxPoint x="210" y="701" as="targetPoint" />
            <Array as="points" />
            <mxPoint as="offset" />
          </mxGeometry>
        </mxCell>
        <mxCell id="NwJcO0OtP2wAcM16LytD-30" value="рисую" style="html=1;verticalAlign=bottom;endArrow=block;exitX=1.038;exitY=0.338;exitDx=0;exitDy=0;exitPerimeter=0;" edge="1" parent="NwJcO0OtP2wAcM16LytD-1">
          <mxGeometry width="80" relative="1" as="geometry">
            <mxPoint x="220.0000000000001" y="710.28" as="sourcePoint" />
            <mxPoint x="369.62" y="710" as="targetPoint" />
          </mxGeometry>
        </mxCell>
        <mxCell id="NwJcO0OtP2wAcM16LytD-31" value="return" style="html=1;verticalAlign=bottom;endArrow=open;dashed=1;endSize=8;entryX=0.9;entryY=0.697;entryDx=0;entryDy=0;entryPerimeter=0;" edge="1" parent="NwJcO0OtP2wAcM16LytD-1">
          <mxGeometry x="-0.4096" y="1" relative="1" as="geometry">
            <mxPoint x="370" y="748.78" as="sourcePoint" />
            <mxPoint x="99" y="750" as="targetPoint" />
            <mxPoint as="offset" />
          </mxGeometry>
        </mxCell>
        <mxCell id="NwJcO0OtP2wAcM16LytD-32" value="" style="endArrow=none;dashed=1;html=1;exitX=0.555;exitY=-0.029;exitDx=0;exitDy=0;exitPerimeter=0;entryX=0.555;entryY=0.993;entryDx=0;entryDy=0;entryPerimeter=0;" edge="1" parent="NwJcO0OtP2wAcM16LytD-1" source="NwJcO0OtP2wAcM16LytD-27" target="NwJcO0OtP2wAcM16LytD-21">
          <mxGeometry width="50" height="50" relative="1" as="geometry">
            <mxPoint x="220" y="680" as="sourcePoint" />
            <mxPoint x="270" y="630" as="targetPoint" />
          </mxGeometry>
        </mxCell>
        <mxCell id="NwJcO0OtP2wAcM16LytD-33" value="" style="endArrow=none;dashed=1;html=1;entryX=0.486;entryY=1.019;entryDx=0;entryDy=0;entryPerimeter=0;" edge="1" parent="NwJcO0OtP2wAcM16LytD-1" target="NwJcO0OtP2wAcM16LytD-27">
          <mxGeometry width="50" height="50" relative="1" as="geometry">
            <mxPoint x="215" y="800" as="sourcePoint" />
            <mxPoint x="260" y="800" as="targetPoint" />
          </mxGeometry>
        </mxCell>
        <mxCell id="NwJcO0OtP2wAcM16LytD-34" value="" style="endArrow=none;dashed=1;html=1;entryX=0.555;entryY=1.01;entryDx=0;entryDy=0;entryPerimeter=0;" edge="1" parent="NwJcO0OtP2wAcM16LytD-1" target="NwJcO0OtP2wAcM16LytD-12">
          <mxGeometry width="50" height="50" relative="1" as="geometry">
            <mxPoint x="376" y="800" as="sourcePoint" />
            <mxPoint x="440" y="740" as="targetPoint" />
          </mxGeometry>
        </mxCell>
        <mxCell id="NwJcO0OtP2wAcM16LytD-35" value="RedMarker" style="swimlane;fontStyle=1;align=center;verticalAlign=top;childLayout=stackLayout;horizontal=1;startSize=26;horizontalStack=0;resizeParent=1;resizeParentMax=0;resizeLast=0;collapsible=1;marginBottom=0;" vertex="1" parent="NwJcO0OtP2wAcM16LytD-1">
          <mxGeometry x="650" y="530" width="200" height="60" as="geometry" />
        </mxCell>
        <mxCell id="NwJcO0OtP2wAcM16LytD-37" value="" style="line;strokeWidth=1;fillColor=none;align=left;verticalAlign=middle;spacingTop=-1;spacingLeft=3;spacingRight=3;rotatable=0;labelPosition=right;points=[];portConstraint=eastwest;" vertex="1" parent="NwJcO0OtP2wAcM16LytD-35">
          <mxGeometry y="26" width="200" height="8" as="geometry" />
        </mxCell>
        <mxCell id="NwJcO0OtP2wAcM16LytD-38" value="+ RedMarker() : base(&quot;red&quot;)" style="text;strokeColor=none;fillColor=none;align=left;verticalAlign=top;spacingLeft=4;spacingRight=4;overflow=hidden;rotatable=0;points=[[0,0.5],[1,0.5]];portConstraint=eastwest;" vertex="1" parent="NwJcO0OtP2wAcM16LytD-35">
          <mxGeometry y="34" width="200" height="26" as="geometry" />
        </mxCell>
        <mxCell id="NwJcO0OtP2wAcM16LytD-39" value="Board" style="swimlane;fontStyle=1;align=center;verticalAlign=top;childLayout=stackLayout;horizontal=1;startSize=26;horizontalStack=0;resizeParent=1;resizeParentMax=0;resizeLast=0;collapsible=1;marginBottom=0;" vertex="1" parent="NwJcO0OtP2wAcM16LytD-1">
          <mxGeometry x="860" y="690" width="160" height="86" as="geometry" />
        </mxCell>
        <mxCell id="NwJcO0OtP2wAcM16LytD-40" value="+ field: type" style="text;strokeColor=none;fillColor=none;align=left;verticalAlign=top;spacingLeft=4;spacingRight=4;overflow=hidden;rotatable=0;points=[[0,0.5],[1,0.5]];portConstraint=eastwest;" vertex="1" parent="NwJcO0OtP2wAcM16LytD-39">
          <mxGeometry y="26" width="160" height="26" as="geometry" />
        </mxCell>
        <mxCell id="NwJcO0OtP2wAcM16LytD-41" value="" style="line;strokeWidth=1;fillColor=none;align=left;verticalAlign=middle;spacingTop=-1;spacingLeft=3;spacingRight=3;rotatable=0;labelPosition=right;points=[];portConstraint=eastwest;" vertex="1" parent="NwJcO0OtP2wAcM16LytD-39">
          <mxGeometry y="52" width="160" height="8" as="geometry" />
        </mxCell>
        <mxCell id="NwJcO0OtP2wAcM16LytD-42" value="+ method(type): type" style="text;strokeColor=none;fillColor=none;align=left;verticalAlign=top;spacingLeft=4;spacingRight=4;overflow=hidden;rotatable=0;points=[[0,0.5],[1,0.5]];portConstraint=eastwest;" vertex="1" parent="NwJcO0OtP2wAcM16LytD-39">
          <mxGeometry y="60" width="160" height="26" as="geometry" />
        </mxCell>
        <mxCell id="NwJcO0OtP2wAcM16LytD-47" value="&lt;p style=&quot;margin: 0px ; margin-top: 4px ; text-align: center&quot;&gt;&lt;i&gt;&amp;lt;&amp;lt;abstruct&amp;gt;&amp;gt;&lt;/i&gt;&lt;br&gt;&lt;b&gt;Marker&lt;/b&gt;&lt;/p&gt;&lt;p style=&quot;margin: 0px ; margin-left: 4px&quot;&gt;&lt;br&gt;&lt;/p&gt;&lt;p style=&quot;margin: 0px ; margin-left: 4px&quot;&gt;+ methodPaint:&amp;nbsp;&lt;br&gt;&lt;/p&gt;" style="verticalAlign=top;align=left;overflow=fill;fontSize=12;fontFamily=Helvetica;html=1;" vertex="1" parent="NwJcO0OtP2wAcM16LytD-1">
          <mxGeometry x="637" y="380" width="190" height="80" as="geometry" />
        </mxCell>
        <mxCell id="NwJcO0OtP2wAcM16LytD-48" value="GreenMarker" style="swimlane;fontStyle=1;align=center;verticalAlign=top;childLayout=stackLayout;horizontal=1;startSize=26;horizontalStack=0;resizeParent=1;resizeParentMax=0;resizeLast=0;collapsible=1;marginBottom=0;" vertex="1" parent="NwJcO0OtP2wAcM16LytD-1">
          <mxGeometry x="430" y="530" width="200" height="60" as="geometry" />
        </mxCell>
        <mxCell id="NwJcO0OtP2wAcM16LytD-50" value="" style="line;strokeWidth=1;fillColor=none;align=left;verticalAlign=middle;spacingTop=-1;spacingLeft=3;spacingRight=3;rotatable=0;labelPosition=right;points=[];portConstraint=eastwest;" vertex="1" parent="NwJcO0OtP2wAcM16LytD-48">
          <mxGeometry y="26" width="200" height="8" as="geometry" />
        </mxCell>
        <mxCell id="NwJcO0OtP2wAcM16LytD-51" value="+ GreenMarker() : base(&quot;green&quot;)" style="text;strokeColor=none;fillColor=none;align=left;verticalAlign=top;spacingLeft=4;spacingRight=4;overflow=hidden;rotatable=0;points=[[0,0.5],[1,0.5]];portConstraint=eastwest;" vertex="1" parent="NwJcO0OtP2wAcM16LytD-48">
          <mxGeometry y="34" width="200" height="26" as="geometry" />
        </mxCell>
        <mxCell id="NwJcO0OtP2wAcM16LytD-52" value="BlackMarker" style="swimlane;fontStyle=1;align=center;verticalAlign=top;childLayout=stackLayout;horizontal=1;startSize=26;horizontalStack=0;resizeParent=1;resizeParentMax=0;resizeLast=0;collapsible=1;marginBottom=0;" vertex="1" parent="NwJcO0OtP2wAcM16LytD-1">
          <mxGeometry x="870" y="530" width="190" height="60" as="geometry" />
        </mxCell>
        <mxCell id="NwJcO0OtP2wAcM16LytD-54" value="" style="line;strokeWidth=1;fillColor=none;align=left;verticalAlign=middle;spacingTop=-1;spacingLeft=3;spacingRight=3;rotatable=0;labelPosition=right;points=[];portConstraint=eastwest;" vertex="1" parent="NwJcO0OtP2wAcM16LytD-52">
          <mxGeometry y="26" width="190" height="8" as="geometry" />
        </mxCell>
        <mxCell id="NwJcO0OtP2wAcM16LytD-55" value="+ BlackMarker() : base(&quot;black&quot;)" style="text;strokeColor=none;fillColor=none;align=left;verticalAlign=top;spacingLeft=4;spacingRight=4;overflow=hidden;rotatable=0;points=[[0,0.5],[1,0.5]];portConstraint=eastwest;" vertex="1" parent="NwJcO0OtP2wAcM16LytD-52">
          <mxGeometry y="34" width="190" height="26" as="geometry" />
        </mxCell>
        <mxCell id="NwJcO0OtP2wAcM16LytD-62" value="Extends" style="endArrow=block;endSize=16;endFill=0;html=1;exitX=0.862;exitY=0.007;exitDx=0;exitDy=0;exitPerimeter=0;entryX=0.217;entryY=1.003;entryDx=0;entryDy=0;entryPerimeter=0;" edge="1" parent="NwJcO0OtP2wAcM16LytD-1" source="NwJcO0OtP2wAcM16LytD-48" target="NwJcO0OtP2wAcM16LytD-47">
          <mxGeometry width="160" relative="1" as="geometry">
            <mxPoint x="610" y="600" as="sourcePoint" />
            <mxPoint x="770" y="600" as="targetPoint" />
          </mxGeometry>
        </mxCell>
        <mxCell id="NwJcO0OtP2wAcM16LytD-66" value="Extends" style="endArrow=block;endSize=16;endFill=0;html=1;entryX=0.5;entryY=1;entryDx=0;entryDy=0;" edge="1" parent="NwJcO0OtP2wAcM16LytD-1" target="NwJcO0OtP2wAcM16LytD-47">
          <mxGeometry width="160" relative="1" as="geometry">
            <mxPoint x="732" y="530" as="sourcePoint" />
            <mxPoint x="770" y="600" as="targetPoint" />
          </mxGeometry>
        </mxCell>
        <mxCell id="NwJcO0OtP2wAcM16LytD-67" value="Extends" style="endArrow=block;endSize=16;endFill=0;html=1;exitX=0.25;exitY=0;exitDx=0;exitDy=0;entryX=0.75;entryY=1;entryDx=0;entryDy=0;" edge="1" parent="NwJcO0OtP2wAcM16LytD-1" source="NwJcO0OtP2wAcM16LytD-52" target="NwJcO0OtP2wAcM16LytD-47">
          <mxGeometry width="160" relative="1" as="geometry">
            <mxPoint x="610" y="600" as="sourcePoint" />
            <mxPoint x="770" y="600" as="targetPoint" />
          </mxGeometry>
        </mxCell>
        <mxCell id="NwJcO0OtP2wAcM16LytD-49" value=" - color: string" style="text;strokeColor=none;fillColor=none;align=left;verticalAlign=top;spacingLeft=4;spacingRight=4;overflow=hidden;rotatable=0;points=[[0,0.5],[1,0.5]];portConstraint=eastwest;" vertex="1" parent="NwJcO0OtP2wAcM16LytD-1">
          <mxGeometry x="637" y="400" width="160" height="26" as="geometry" />
        </mxCell>
        <mxCell id="NwJcO0OtP2wAcM16LytD-70" value="# Marker( color )" style="text;strokeColor=none;fillColor=none;align=left;verticalAlign=top;spacingLeft=4;spacingRight=4;overflow=hidden;rotatable=0;points=[[0,0.5],[1,0.5]];portConstraint=eastwest;" vertex="1" parent="NwJcO0OtP2wAcM16LytD-1">
          <mxGeometry x="637" y="434" width="160" height="26" as="geometry" />
        </mxCell>
        <mxCell id="NwJcO0OtP2wAcM16LytD-72" value="" style="endArrow=none;html=1;" edge="1" parent="NwJcO0OtP2wAcM16LytD-1">
          <mxGeometry width="50" height="50" relative="1" as="geometry">
            <mxPoint x="691" y="706" as="sourcePoint" />
            <mxPoint x="858" y="706" as="targetPoint" />
          </mxGeometry>
        </mxCell>
      </root>
    </mxGraphModel>
  </diagram>
</mxfile>
